<svg width="400" height="250" viewBox="0 0 400 250" fill="none" xmlns="http://www.w3.org/2000/svg">
  <defs>
    <linearGradient id="bg6" x1="0%" y1="0%" x2="100%" y2="100%">
      <stop offset="0%" style="stop-color:#F59E0B;stop-opacity:0.1" />
      <stop offset="100%" style="stop-color:#10B981;stop-opacity:0.1" />
    </linearGradient>
  </defs>
  <rect width="400" height="250" fill="url(#bg6)"/>
  <rect x="80" y="80" width="60" height="40" rx="8" fill="white" stroke="#3B82F6" stroke-width="2"/>
  <rect x="90" y="90" width="40" height="6" rx="2" fill="#3B82F6"/>
  <rect x="90" y="104" width="30" height="6" rx="2" fill="#D1D5DB"/>
  <rect x="260" y="80" width="60" height="40" rx="8" fill="white" stroke="#10B981" stroke-width="2"/>
  <rect x="270" y="90" width="40" height="6" rx="2" fill="#10B981"/>
  <rect x="270" y="104" width="30" height="6" rx="2" fill="#D1D5DB"/>
  <rect x="80" y="150" width="60" height="40" rx="8" fill="white" stroke="#F59E0B" stroke-width="2"/>
  <rect x="90" y="160" width="40" height="6" rx="2" fill="#F59E0B"/>
  <rect x="90" y="174" width="30" height="6" rx="2" fill="#D1D5DB"/>
  <rect x="260" y="150" width="60" height="40" rx="8" fill="white" stroke="#8B5CF6" stroke-width="2"/>
  <rect x="270" y="160" width="40" height="6" rx="2" fill="#8B5CF6"/>
  <rect x="270" y="174" width="30" height="6" rx="2" fill="#D1D5DB"/>
  <path d="M140 100L180 100" stroke="#3B82F6" stroke-width="2" marker-end="url(#arrowhead)"/>
  <path d="M200 100L240 100" stroke="#10B981" stroke-width="2" marker-end="url(#arrowhead)"/>
  <path d="M290 120L290 140" stroke="#8B5CF6" stroke-width="2" marker-end="url(#arrowhead)"/>
  <path d="M140 170L180 170" stroke="#F59E0B" stroke-width="2" marker-end="url(#arrowhead)"/>
  <path d="M200 170L240 170" stroke="#8B5CF6" stroke-width="2" marker-end="url(#arrowhead)"/>
  <circle cx="200" cy="125" r="20" fill="#EF4444"/>
  <path d="M190 125L200 135L210 115" stroke="white" stroke-width="2" stroke-linecap="round" stroke-linejoin="round"/>
  <defs>
    <marker id="arrowhead" markerWidth="10" markerHeight="7" refX="9" refY="3.5" orient="auto">
      <polygon points="0 0, 10 3.5, 0 7" fill="#6B7280"/>
    </marker>
  </defs>
</svg>
