<svg width="400" height="250" viewBox="0 0 400 250" fill="none" xmlns="http://www.w3.org/2000/svg">
  <defs>
    <linearGradient id="bg2" x1="0%" y1="0%" x2="100%" y2="100%">
      <stop offset="0%" style="stop-color:#10B981;stop-opacity:0.1" />
      <stop offset="100%" style="stop-color:#3B82F6;stop-opacity:0.1" />
    </linearGradient>
  </defs>
  <rect width="400" height="250" fill="url(#bg2)"/>
  <rect x="50" y="40" width="300" height="170" rx="12" fill="white" stroke="#E5E7EB" stroke-width="2"/>
  <rect x="70" y="60" width="80" height="60" rx="6" fill="#F3F4F6"/>
  <rect x="160" y="60" width="80" height="60" rx="6" fill="#F3F4F6"/>
  <rect x="250" y="60" width="80" height="60" rx="6" fill="#F3F4F6"/>
  <rect x="70" y="130" width="60" height="8" rx="2" fill="#D1D5DB"/>
  <rect x="70" y="145" width="40" height="8" rx="2" fill="#10B981"/>
  <rect x="160" y="130" width="60" height="8" rx="2" fill="#D1D5DB"/>
  <rect x="160" y="145" width="40" height="8" rx="2" fill="#10B981"/>
  <rect x="250" y="130" width="60" height="8" rx="2" fill="#D1D5DB"/>
  <rect x="250" y="145" width="40" height="8" rx="2" fill="#10B981"/>
  <circle cx="340" cy="180" r="20" fill="#EF4444"/>
  <path d="M330 180h20M340 170v20" stroke="white" stroke-width="2" stroke-linecap="round"/>
  <rect x="70" y="170" width="200" height="25" rx="12" fill="#3B82F6"/>
  <text x="170" y="187" text-anchor="middle" fill="white" font-size="12" font-weight="600">Ajouter au panier</text>
</svg>
