<svg width="400" height="250" viewBox="0 0 400 250" fill="none" xmlns="http://www.w3.org/2000/svg">
  <defs>
    <linearGradient id="bg5" x1="0%" y1="0%" x2="100%" y2="100%">
      <stop offset="0%" style="stop-color:#6366F1;stop-opacity:0.1" />
      <stop offset="100%" style="stop-color:#8B5CF6;stop-opacity:0.1" />
    </linearGradient>
  </defs>
  <rect width="400" height="250" fill="url(#bg5)"/>
  <circle cx="150" cy="125" r="35" fill="none" stroke="#3B82F6" stroke-width="3"/>
  <circle cx="150" cy="125" r="20" fill="none" stroke="#6366F1" stroke-width="2"/>
  <circle cx="150" cy="125" r="8" fill="#3B82F6"/>
  <rect x="140" y="90" width="20" height="8" rx="2" fill="#6366F1"/>
  <rect x="140" y="152" width="20" height="8" rx="2" fill="#6366F1"/>
  <rect x="115" y="115" width="8" height="20" rx="2" fill="#6366F1"/>
  <rect x="177" y="115" width="8" height="20" rx="2" fill="#6366F1"/>
  <rect x="250" y="80" width="100" height="90" rx="8" fill="white" stroke="#E5E7EB" stroke-width="2"/>
  <rect x="260" y="90" width="80" height="6" rx="2" fill="#10B981"/>
  <rect x="260" y="105" width="60" height="6" rx="2" fill="#10B981"/>
  <rect x="260" y="120" width="70" height="6" rx="2" fill="#F59E0B"/>
  <rect x="260" y="135" width="50" height="6" rx="2" fill="#EF4444"/>
  <rect x="260" y="150" width="65" height="12" rx="6" fill="#3B82F6"/>
  <path d="M200 100L220 120L240 100" stroke="#10B981" stroke-width="3" fill="none" stroke-linecap="round" stroke-linejoin="round"/>
</svg>
