<svg width="400" height="250" viewBox="0 0 400 250" fill="none" xmlns="http://www.w3.org/2000/svg">
  <defs>
    <linearGradient id="bg4" x1="0%" y1="0%" x2="100%" y2="100%">
      <stop offset="0%" style="stop-color:#8B5CF6;stop-opacity:0.1" />
      <stop offset="100%" style="stop-color:#EC4899;stop-opacity:0.1" />
    </linearGradient>
  </defs>
  <rect width="400" height="250" fill="url(#bg4)"/>
  <rect x="80" y="60" width="240" height="130" rx="12" fill="white" stroke="#E5E7EB" stroke-width="2"/>
  <circle cx="120" cy="100" r="15" fill="#1DA1F2"/>
  <path d="M115 100h10M120 95v10" stroke="white" stroke-width="2" stroke-linecap="round"/>
  <circle cx="170" cy="100" r="15" fill="#E1306C"/>
  <path d="M165 100h10M170 95v10" stroke="white" stroke-width="2" stroke-linecap="round"/>
  <circle cx="220" cy="100" r="15" fill="#25D366"/>
  <path d="M215 100h10M220 95v10" stroke="white" stroke-width="2" stroke-linecap="round"/>
  <circle cx="270" cy="100" r="15" fill="#FF0000"/>
  <path d="M265 100l10 0M270 95l0 10" stroke="white" stroke-width="2" stroke-linecap="round"/>
  <rect x="100" y="130" width="120" height="6" rx="3" fill="#10B981"/>
  <rect x="100" y="145" width="80" height="6" rx="3" fill="#3B82F6"/>
  <rect x="100" y="160" width="100" height="6" rx="3" fill="#F59E0B"/>
  <path d="M250 140L280 120L290 140L300 125" stroke="#10B981" stroke-width="3" fill="none" stroke-linecap="round" stroke-linejoin="round"/>
  <circle cx="300" cy="125" r="3" fill="#10B981"/>
</svg>
