<svg width="400" height="300" viewBox="0 0 400 300" xmlns="http://www.w3.org/2000/svg">
  <defs>
    <linearGradient id="startupGrad" x1="0%" y1="0%" x2="100%" y2="100%">
      <stop offset="0%" style="stop-color:#9775fa;stop-opacity:1" />
      <stop offset="100%" style="stop-color:#b197fc;stop-opacity:1" />
    </linearGradient>
  </defs>
  
  <!-- Background -->
  <rect width="400" height="300" fill="#f8f9fa"/>
  
  <!-- Modern building -->
  <rect x="80" y="80" width="240" height="160" fill="#fff" stroke="#dee2e6" stroke-width="2"/>
  
  <!-- Glass facade -->
  <rect x="90" y="90" width="220" height="140" fill="#e3f2fd" stroke="#90caf9" stroke-width="1"/>
  
  <!-- Grid pattern on glass -->
  <line x1="150" y1="90" x2="150" y2="230" stroke="#90caf9" stroke-width="1"/>
  <line x1="200" y1="90" x2="200" y2="230" stroke="#90caf9" stroke-width="1"/>
  <line x1="250" y1="90" x2="250" y2="230" stroke="#90caf9" stroke-width="1"/>
  <line x1="90" y1="130" x2="310" y2="130" stroke="#90caf9" stroke-width="1"/>
  <line x1="90" y1="170" x2="310" y2="170" stroke="#90caf9" stroke-width="1"/>
  <line x1="90" y1="210" x2="310" y2="210" stroke="#90caf9" stroke-width="1"/>
  
  <!-- Entrance -->
  <rect x="180" y="200" width="40" height="40" fill="#495057"/>
  
  <!-- Startup logo -->
  <circle cx="200" cy="40" r="20" fill="url(#startupGrad)"/>
  <polygon points="190,35 200,25 210,35 205,45 195,45" fill="white"/>
  
  <!-- Company name -->
  <text x="200" y="270" text-anchor="middle" fill="url(#startupGrad)" font-family="Arial, sans-serif" font-size="16" font-weight="bold">TECHSTART JLM</text>
  
  <!-- Rocket icon -->
  <polygon points="350,50 360,30 370,50 365,60 355,60" fill="url(#startupGrad)"/>
  <rect x="357" y="60" width="6" height="15" fill="#ffd700"/>
  <polygon points="354,75 360,85 366,75" fill="#ff6b6b"/>
  <polygon points="357,75 363,85 369,75" fill="#ff8e8e"/>
  
  <!-- Tech elements -->
  <rect x="30" y="50" width="8" height="8" fill="url(#startupGrad)" transform="rotate(45 34 54)"/>
  <rect x="30" y="80" width="6" height="6" fill="#b197fc" transform="rotate(45 33 83)"/>
  <rect x="30" y="110" width="10" height="10" fill="#9775fa" transform="rotate(45 35 115)"/>
</svg>
