<svg width="400" height="300" viewBox="0 0 400 300" xmlns="http://www.w3.org/2000/svg">
  <defs>
    <linearGradient id="realestateGrad" x1="0%" y1="0%" x2="100%" y2="100%">
      <stop offset="0%" style="stop-color:#51cf66;stop-opacity:1" />
      <stop offset="100%" style="stop-color:#69db7c;stop-opacity:1" />
    </linearGradient>
  </defs>
  
  <!-- Background -->
  <rect width="400" height="300" fill="#f8f9fa"/>
  
  <!-- Building 1 -->
  <rect x="50" y="100" width="80" height="140" fill="#e9ecef" stroke="#dee2e6" stroke-width="2"/>
  <polygon points="40,100 90,70 140,100" fill="#6c757d"/>
  
  <!-- Building 2 -->
  <rect x="150" y="80" width="100" height="160" fill="#f8f9fa" stroke="#dee2e6" stroke-width="2"/>
  <polygon points="140,80 200,50 260,80" fill="#495057"/>
  
  <!-- Building 3 -->
  <rect x="270" y="120" width="80" height="120" fill="#e9ecef" stroke="#dee2e6" stroke-width="2"/>
  <polygon points="260,120 310,90 360,120" fill="#6c757d"/>
  
  <!-- Windows Building 1 -->
  <rect x="60" y="120" width="15" height="15" fill="#87ceeb"/>
  <rect x="85" y="120" width="15" height="15" fill="#87ceeb"/>
  <rect x="60" y="150" width="15" height="15" fill="#87ceeb"/>
  <rect x="85" y="150" width="15" height="15" fill="#87ceeb"/>
  
  <!-- Windows Building 2 -->
  <rect x="160" y="100" width="20" height="20" fill="#87ceeb"/>
  <rect x="190" y="100" width="20" height="20" fill="#87ceeb"/>
  <rect x="220" y="100" width="20" height="20" fill="#87ceeb"/>
  <rect x="160" y="140" width="20" height="20" fill="#87ceeb"/>
  <rect x="190" y="140" width="20" height="20" fill="#87ceeb"/>
  <rect x="220" y="140" width="20" height="20" fill="#87ceeb"/>
  
  <!-- Windows Building 3 -->
  <rect x="280" y="140" width="15" height="15" fill="#87ceeb"/>
  <rect x="305" y="140" width="15" height="15" fill="#87ceeb"/>
  <rect x="280" y="170" width="15" height="15" fill="#87ceeb"/>
  <rect x="305" y="170" width="15" height="15" fill="#87ceeb"/>
  
  <!-- Real Estate Sign -->
  <rect x="120" y="250" width="160" height="40" fill="url(#realestateGrad)" rx="5"/>
  <text x="200" y="275" text-anchor="middle" fill="white" font-family="Arial, sans-serif" font-size="14" font-weight="bold">IMMO TLV</text>
  
  <!-- Key icon -->
  <circle cx="200" cy="30" r="8" fill="url(#realestateGrad)"/>
  <rect x="206" y="26" width="15" height="4" fill="url(#realestateGrad)"/>
  <rect x="218" y="24" width="3" height="3" fill="url(#realestateGrad)"/>
  <rect x="218" y="29" width="3" height="3" fill="url(#realestateGrad)"/>
</svg>
